<?xml version="1.0" encoding="UTF-8"?>
<svg width="200px" height="200px" viewBox="0 0 200 200" version="1.1" xmlns="http://www.w3.org/2000/svg" xmlns:xlink="http://www.w3.org/1999/xlink">
    <title>facebook</title>
    <g id="Page-5" stroke="none" stroke-width="1" fill="none" fill-rule="evenodd">
        <g id="App-Store-Copy-3" transform="translate(-111, -110)" fill-rule="nonzero">
            <g id="facebook" transform="translate(111, 110)">
                <path d="M200,100.000071 C200,44.7714945 155.228505,0 100.000073,0 C44.7714953,0 0,44.7714945 0,100.000071 C0,149.912876 36.5685148,191.283295 84.3750206,198.785201 L84.3750206,128.906279 L58.9844382,128.906279 L58.9844382,100.000071 L84.3750206,100.000071 L84.3750206,77.9688165 C84.3750206,52.9062132 99.3042723,39.0625577 122.146465,39.0625577 C133.087386,39.0625577 144.531334,41.0156343 144.531334,41.0156343 L144.531334,65.6250149 L131.921517,65.6250149 C119.499053,65.6250149 115.625126,73.3334639 115.625126,81.2417176 L115.625126,100.000071 L143.359459,100.000071 L138.925815,128.906279 L115.624979,128.906279 L115.624979,198.785201 C163.431485,191.283295 200,149.912876 200,100.000071" id="Path" fill="#1877F2"></path>
                <path d="M138.925815,128.906279 L143.359459,100.000071 L115.624979,100.000071 L115.624979,81.2415711 C115.624979,73.3334639 119.499053,65.6250149 131.921517,65.6250149 L144.531334,65.6250149 L144.531334,41.0156343 C144.531334,41.0156343 133.087386,39.0625577 122.146465,39.0625577 C99.3042723,39.0625577 84.3750206,52.9062132 84.3750206,77.9688165 L84.3750206,100.000071 L58.9844382,100.000071 L58.9844382,128.906279 L84.3750206,128.906279 L84.3750206,198.785201 C89.5439296,199.595216 94.7680811,200 100.000073,200 C105.3157,200 110.533767,199.583981 115.624979,198.785201 L115.624979,128.906279 L138.925815,128.906279" id="Path" fill="#FFFFFF"></path>
            </g>
        </g>
    </g>
</svg>