<?xml version="1.0" encoding="UTF-8"?>
<svg width="24px" height="24px" viewBox="0 0 24 24" version="1.1" xmlns="http://www.w3.org/2000/svg" xmlns:xlink="http://www.w3.org/1999/xlink">
    <title>Download Icon</title>
    <g id="Download-Icon" stroke="none" stroke-width="1" fill="none" fill-rule="evenodd">
        <path d="M12,2 C17.5228,2 22,6.47715 22,12 C22,17.5228 17.5228,22 12,22 C6.47715,22 2,17.5228 2,12 C2,6.47715 6.47715,2 12,2 Z" id="Background" fill="#4a6741" fill-rule="nonzero" opacity="0.1"></path>
        <path d="M12,4 C12.5523,4 13,4.44772 13,5 L13,13.5858 L16.2929,10.2929 C16.6834,9.90237 17.3166,9.90237 17.7071,10.2929 C18.0976,10.6834 18.0976,11.3166 17.7071,11.7071 L12.7071,16.7071 C12.3166,17.0976 11.6834,17.0976 11.2929,16.7071 L6.29289,11.7071 C5.90237,11.3166 5.90237,10.6834 6.29289,10.2929 C6.68342,9.90237 7.31658,9.90237 7.70711,10.2929 L11,13.5858 L11,5 C11,4.44772 11.4477,4 12,4 Z" id="Arrow" fill="#4a6741" fill-rule="nonzero"></path>
        <path d="M5,18 C5,17.4477 5.44772,17 6,17 L18,17 C18.5523,17 19,17.4477 19,18 C19,18.5523 18.5523,19 18,19 L6,19 C5.44772,19 5,18.5523 5,18 Z" id="Line" fill="#4a6741" fill-rule="nonzero"></path>
    </g>
</svg>
